HIERARCHY
ROOT Hips
{
	OFFSET 0.00000 0.00000 0.00000
	CHANNELS 6 Xposition Yposition Zposition Zrotation Yrotation Xrotation 
	JOINT LHipJoint
	{
		OFFSET 0 0 0
		CHANNELS 3 Zrotation Yrotation Xrotation
		JOINT LeftHip
		{
			OFFSET 1.52977 -1.71332 0.88991
			CHANNELS 3 Zrotation Yrotation Xrotation
			JOINT LeftKnee
			{
				OFFSET 2.23949 -6.15296 0.00000
				CHANNELS 3 Zrotation Yrotation Xrotation
				JOINT LeftAnkle
				{
					OFFSET 2.68396 -7.37412 0.00000
					CHANNELS 3 Zrotation Yrotation Xrotation
					JOINT LeftToe
					{
						OFFSET 0.20538 -0.56428 2.52710
						CHANNELS 3 Zrotation Yrotation Xrotation
						End Site
						{
							OFFSET 0.00000 -0.00000 1.29919
						}
					}
				}
			}
		}
	}
	JOINT RHipJoint
	{
		OFFSET 0 0 0
		CHANNELS 3 Zrotation Yrotation Xrotation
		JOINT RightHip
		{
			OFFSET -1.45689 -1.71333 0.88991
			CHANNELS 3 Zrotation Yrotation Xrotation
			JOINT RightKnee
			{
				OFFSET -2.36700 -6.50329 0.00000
				CHANNELS 3 Zrotation Yrotation Xrotation
				JOINT RightAnkle
				{
					OFFSET -2.69814 -7.41308 0.00000
					CHANNELS 3 Zrotation Yrotation Xrotation
					JOINT RightToe
					{
						OFFSET -0.18734 -0.51471 2.37479
						CHANNELS 3 Zrotation Yrotation Xrotation
						End Site
						{
							OFFSET -0.00000 -0.00000 1.22113
						}
					}
				}
			}
		}
	}
	JOINT lowerback
	{
		OFFSET 0 0 0
		CHANNELS 3 Zrotation Yrotation Xrotation
		JOINT Chest
		{
			OFFSET 0.04294 2.14638 -0.31163
			CHANNELS 3 Zrotation Yrotation Xrotation
			JOINT Chest2
			{
				OFFSET -0.00400 2.17216 0.01486
				CHANNELS 3 Zrotation Yrotation Xrotation
				JOINT lowerneck
				{
					OFFSET 0 0 0
					CHANNELS 3 Zrotation Yrotation Xrotation
					JOINT Neck
					{
						OFFSET 0.03869 1.76598 0.14916
						CHANNELS 3 Zrotation Yrotation Xrotation
						JOINT Head
						{
							OFFSET -0.00760 1.75513 -0.18948
							CHANNELS 3 Zrotation Yrotation Xrotation
							End Site
							{
								OFFSET -0.00601 1.82444 -0.08310
							}
						}
					}
				}
				JOINT LeftCollar
				{
					OFFSET 0 0 0
					CHANNELS 3 Zrotation Yrotation Xrotation
					JOINT LeftShoulder
					{
						OFFSET 3.73696 0.92058 0.01733
CHANNELS 3 Zrotation Xrotation Yrotation
						JOINT LeftElbow
						{
OFFSET 0 -5.227710 0.000000
CHANNELS 3 Zrotation Xrotation Yrotation
							JOINT LeftWrist
							{
OFFSET 0 -3.452510 0.000000
CHANNELS 3 Zrotation Xrotation Yrotation
								JOINT lhand
								{
									OFFSET 0 0 0
CHANNELS 3 Zrotation Xrotation Yrotation
									JOINT LFingers
									{
OFFSET 0 -0.552120 0.000000
CHANNELS 3 Zrotation Xrotation Yrotation
										End Site
										{
OFFSET 0 -0.445130 0.000000
										}
									}
								}
								JOINT LThumb
								{
OFFSET 0 0.000000 0.000000
CHANNELS 3 Zrotation Xrotation Yrotation
									End Site
									{
OFFSET 0 -0.451930 0.451930
									}
								}
							}
						}
					}
				}
				JOINT RightCollar
				{
					OFFSET 0 0 0
					CHANNELS 3 Zrotation Yrotation Xrotation
					JOINT RightShoulder
					{
						OFFSET -3.63819 0.83094 -0.13694
CHANNELS 3 Zrotation Xrotation Yrotation
						JOINT RightElbow
						{
OFFSET 0 -5.239800 -0.000000
CHANNELS 3 Zrotation Xrotation Yrotation
							JOINT RightWrist
							{
OFFSET 0 -3.480420 -0.000000
CHANNELS 3 Zrotation Xrotation Yrotation
								JOINT rhand
								{
									OFFSET 0 0 0
CHANNELS 3 Zrotation Xrotation Yrotation
									JOINT RFingers
									{
OFFSET 0 -0.618710 0.000000
CHANNELS 3 Zrotation Xrotation Yrotation
										End Site
										{
OFFSET 0 -0.498820 0.000000
										}
									}
								}
								JOINT RThumb
								{
OFFSET 0 0.000000 0.000000
CHANNELS 3 Zrotation Xrotation Yrotation
									End Site
									{
OFFSET 0 -0.506440 0.506440
									}
								}
							}
						}
					}
				}
			}
		}
	}
}
MOTION
Frames: 11
Frame Time: 0.008333333333333333
3.094235 16.801266 -5.182100 320.612299 85.321228 319.125444 0.000000 0.000000 0.000000 -22.873826 6.084431 -16.644905 1.374112 7.418155 20.960223 0.352952 -2.321467 -10.658813 0.002818 -0.336231 -0.923931 0.000000 0.000000 0.000000 23.710147 -5.322450 -1.685581 -9.139955 -16.895738 56.571089 0.706149 -19.292267 6.311656 -0.726519 -5.446166 15.185727 3.460840 0.198285 -0.232321 -0.546986 0.239644 1.672331 -2.497525 0.181471 1.864195 2.489354 0.510620 -7.816883 1.123102 0.307902 8.700172 -0.046711 0.307103 4.272878 0.000000 0.000000 0.000000 1.544176 4.682327 -17.279781 11.257711 -18.682093 1.857716 16.795083 -9.770838 -13.125068 0.000000 0.000000 0.000000 -7.125000 0.000000 0.000000 -9.611063 43.459623 -0.369002 0.000000 0.000000 0.000000 -0.183978 4.248575 24.362325 -14.429918 -23.346022 -2.996383 -18.446493 6.137126 7.748733 0.000000 0.000000 0.000000 7.125000 0.000000 0.000000 7.186174 38.052384 1.236947
3.298174 16.795173 -5.182038 326.678135 85.646742 324.972776 0.000000 0.000000 0.000000 -23.488773 6.736152 -15.703232 1.350119 7.355770 20.773716 0.359810 -2.718431 -10.720077 0.000407 0.069435 0.190813 0.000000 0.000000 0.000000 22.980627 -4.204260 -3.407116 -10.057876 -17.440293 59.678914 0.720809 -20.141675 7.205119 -0.627322 -5.065474 14.096021 2.702416 0.132395 0.012249 -0.661020 0.170203 1.736599 -2.190454 0.136142 1.784483 2.519462 0.550358 -7.738378 1.175753 0.356692 8.605881 -0.031846 0.333204 4.223442 0.000000 0.000000 0.000000 1.683760 4.469478 -18.170008 11.672850 -19.312040 1.992932 16.866911 -10.390688 -12.940640 0.000000 0.000000 0.000000 -7.125000 0.000000 0.000000 -9.504996 43.278667 -0.407679 0.000000 0.000000 0.000000 -0.194508 4.047203 23.933505 -14.395793 -23.297677 -2.982860 -18.568222 6.182481 8.023854 0.000000 0.000000 0.000000 7.125000 0.000000 0.000000 7.121936 38.347818 1.173812
3.498358 16.786539 -5.183768 332.231875 85.857202 330.334558 0.000000 0.000000 0.000000 -23.967759 7.330912 -14.864316 1.345640 7.344146 20.739044 0.371605 -3.078747 -10.868451 0.005609 0.470701 1.293449 0.000000 0.000000 0.000000 22.414653 -2.995935 -5.055734 -10.890095 -17.879200 62.422173 0.643180 -19.037175 6.793514 -0.434005 -4.217890 11.691932 2.129766 0.072709 0.157976 -0.768950 0.102307 1.844803 -1.980934 0.096513 1.807828 2.553873 0.592186 -7.714142 1.228918 0.405416 8.539396 -0.017439 0.360089 4.195017 0.000000 0.000000 0.000000 1.876064 4.128486 -19.039160 12.086413 -19.933859 2.131822 16.937452 -10.965446 -12.796858 0.000000 0.000000 0.000000 -7.125000 0.000000 0.000000 -9.409878 43.138943 -0.436276 0.000000 0.000000 0.000000 -0.159944 3.753781 23.595860 -14.369245 -23.260125 -2.972377 -18.655857 6.018161 8.214960 0.000000 0.000000 0.000000 7.125000 0.000000 0.000000 7.074770 38.553552 1.129991
3.695725 16.777268 -5.188137 336.663738 85.968211 334.611629 0.000000 0.000000 0.000000 -24.304788 7.807046 -14.112466 1.360639 7.383275 20.855869 0.390474 -3.350309 -11.128826 0.018244 0.865815 2.379761 0.000000 0.000000 0.000000 22.018231 -1.695207 -6.643057 -11.619873 -18.224397 64.777829 0.524216 -16.486009 5.193553 -0.244532 -3.170578 8.754877 1.752307 0.018125 0.224619 -0.858191 0.037100 1.972271 -1.861666 0.061790 1.897388 2.594177 0.634156 -7.716242 1.262288 0.454323 8.503229 -0.010577 0.386642 4.182925 0.000000 0.000000 0.000000 2.091909 3.711985 -19.863950 12.507526 -20.561245 2.277552 17.046380 -11.437807 -12.759417 0.000000 0.000000 0.000000 -7.125000 0.000000 0.000000 -9.304455 43.112096 -0.437536 0.000000 0.000000 0.000000 -0.109584 3.428270 23.403944 -14.368407 -23.258925 -2.972035 -18.698222 5.672218 8.326880 0.000000 0.000000 0.000000 7.125000 0.000000 0.000000 7.054781 38.673469 1.105931
3.890158 16.767730 -5.194801 339.524721 85.987551 337.349614 0.000000 0.000000 0.000000 -24.490855 8.127049 -13.413038 1.390844 7.461482 21.089947 0.418917 -3.496768 -11.527169 0.036260 1.228540 3.377776 0.000000 0.000000 0.000000 21.800471 -0.280773 -8.182579 -12.231221 -18.486517 66.719604 0.421172 -13.598271 2.908593 -0.102560 -2.058140 5.666565 1.567228 -0.031041 0.287112 -0.916877 -0.023320 2.071352 -1.818998 0.031250 1.961134 2.629423 0.676126 -7.703879 1.277988 0.505564 8.514544 -0.008451 0.414227 4.185061 0.000000 0.000000 0.000000 2.307179 3.318471 -20.626040 12.947275 -21.209753 2.434188 17.180868 -11.811978 -12.842098 0.000000 0.000000 0.000000 -7.125000 0.000000 0.000000 -9.202537 43.211128 -0.409994 0.000000 0.000000 0.000000 -0.063032 3.167721 23.373117 -14.418021 -23.329213 -2.991637 -18.685408 5.280555 8.399920 0.000000 0.000000 0.000000 7.125000 0.000000 0.000000 7.076413 38.748731 1.096152
4.082301 16.757618 -5.202863 341.067312 85.961614 338.784626 0.000000 0.000000 0.000000 -24.568769 8.285311 -12.713408 1.429365 7.559668 21.384332 0.459047 -3.537184 -12.075965 0.054008 1.498615 4.122016 0.000000 0.000000 0.000000 21.704106 1.214023 -9.669447 -12.706315 -18.673272 68.210508 0.343367 -11.141321 0.368311 -0.022131 -0.938664 2.580161 1.499011 -0.079962 0.370827 -0.938413 -0.085309 2.139467 -1.803564 0.000611 1.981402 2.652367 0.714129 -7.679951 1.266227 0.555645 8.573390 -0.013343 0.440088 4.202004 0.000000 0.000000 0.000000 2.491159 2.957647 -21.310519 13.391591 -21.858203 2.597394 17.307969 -12.154599 -12.915032 0.000000 0.000000 0.000000 -7.125000 0.000000 0.000000 -9.104839 43.299523 -0.385532 0.000000 0.000000 0.000000 -0.044882 2.991838 23.489088 -14.527687 -23.484082 -3.035234 -18.580299 4.980383 8.491704 0.000000 0.000000 0.000000 7.125000 0.000000 0.000000 7.180164 38.836806 1.096792
4.272307 16.745192 -5.211079 341.947020 85.940123 339.546556 0.000000 0.000000 0.000000 -24.607305 8.345646 -11.959122 1.466396 7.652805 21.664411 0.508871 -3.514547 -12.732114 0.062462 1.612365 4.435413 0.000000 0.000000 0.000000 21.644873 2.712176 -11.092700 -13.048313 -18.799353 69.275364 0.268794 -9.230322 -2.277424 -0.001068 -0.072216 0.198425 1.470256 -0.132829 0.482037 -0.937202 -0.153223 2.196294 -1.786905 -0.032930 1.974556 2.658631 0.744920 -7.655692 1.238417 0.599170 8.663166 -0.020845 0.461902 4.229922 0.000000 0.000000 0.000000 2.652955 2.612156 -21.960924 13.834050 -22.496732 2.764481 17.396809 -12.578167 -12.855838 0.000000 0.000000 0.000000 -7.125000 0.000000 0.000000 -9.012463 43.248202 -0.393037 0.000000 0.000000 0.000000 -0.049307 2.879933 23.708586 -14.686915 -23.708088 -3.098977 -18.471469 4.781490 8.544930 0.000000 0.000000 0.000000 7.125000 0.000000 0.000000 7.281290 38.884139 1.103910
4.460934 16.730752 -5.217932 342.790813 85.950854 340.259362 0.000000 0.000000 0.000000 -24.661641 8.389762 -11.151866 1.496543 7.727528 21.889552 0.564517 -3.451633 -13.434704 0.052705 1.479778 4.070010 0.000000 0.000000 0.000000 21.560671 4.170109 -12.462857 -13.265741 -18.875964 69.948967 0.176753 -7.770935 -5.104468 -0.010748 0.641307 -1.762439 1.409250 -0.191407 0.599684 -0.923539 -0.228515 2.259891 -1.739238 -0.070814 1.970824 2.650976 0.768803 -7.632363 1.197372 0.636204 8.752039 -0.030666 0.479227 4.257632 0.000000 0.000000 0.000000 2.797685 2.257046 -22.600647 14.271808 -23.121665 2.934194 17.469344 -13.072557 -12.710549 0.000000 0.000000 0.000000 -7.125000 0.000000 0.000000 -8.916142 43.106530 -0.420174 0.000000 0.000000 0.000000 -0.074422 2.799485 24.007132 -14.881445 -23.980615 -3.177618 -18.371690 4.618546 8.568647 0.000000 0.000000 0.000000 7.125000 0.000000 0.000000 7.370399 38.901481 1.114456
4.648698 16.714344 -5.222657 343.938272 86.009413 341.270521 0.000000 0.000000 0.000000 -24.751741 8.452499 -10.315672 1.519865 7.784779 22.062230 0.622561 -3.392229 -14.136318 0.035309 1.210866 3.329129 0.000000 0.000000 0.000000 21.416281 5.557216 -13.792275 -13.361103 -18.908701 70.243377 0.047725 -6.686770 -8.180508 -0.040236 1.288876 -3.544055 1.281161 -0.259393 0.719972 -0.907160 -0.316050 2.325978 -1.651059 -0.115975 1.968190 2.644932 0.791433 -7.613809 1.141633 0.672708 8.838983 -0.045868 0.495591 4.285770 0.000000 0.000000 0.000000 2.934466 1.901186 -23.235684 14.705313 -23.733859 3.106491 17.557456 -13.599988 -12.559439 0.000000 0.000000 0.000000 -7.125000 0.000000 0.000000 -8.805182 42.960473 -0.446864 0.000000 0.000000 0.000000 -0.111842 2.741403 24.362441 -15.098155 -24.282531 -3.266197 -18.315991 4.446520 8.506750 0.000000 0.000000 0.000000 7.125000 0.000000 0.000000 7.408736 38.832888 1.132862
4.835766 16.696453 -5.225543 345.469356 86.122104 342.668219 0.000000 0.000000 0.000000 -24.876011 8.541720 -9.485655 1.539954 7.833855 22.210588 0.681065 -3.379571 -14.809160 0.022376 0.966499 2.656597 0.000000 0.000000 0.000000 21.199132 6.847651 -15.087706 -13.333263 -18.899199 70.157481 -0.124263 -6.022594 -11.392188 -0.076711 1.786193 -4.915223 1.084513 -0.339066 0.842610 -0.890459 -0.419130 2.388518 -1.524052 -0.170282 1.960870 2.645983 0.813281 -7.604203 1.066864 0.708858 8.926562 -0.068671 0.510967 4.316124 0.000000 0.000000 0.000000 3.060804 1.554249 -23.853942 15.134940 -24.333688 3.281389 17.665312 -14.106238 -12.462257 0.000000 0.000000 0.000000 -7.125000 0.000000 0.000000 -8.688408 42.871548 -0.460034 0.000000 0.000000 0.000000 -0.159178 2.700129 24.740501 -15.325754 -24.597963 -3.360376 -18.300243 4.245343 8.335219 0.000000 0.000000 0.000000 7.125000 0.000000 0.000000 7.396323 38.653109 1.163815
5.021630 16.677227 -5.227461 347.256419 86.271543 344.345489 0.000000 0.000000 0.000000 -25.016223 8.659121 -8.703285 1.558464 7.878598 22.345908 0.736939 -3.422559 -15.419991 0.015990 0.815654 2.241798 0.000000 0.000000 0.000000 20.925559 8.056758 -16.357265 -13.176351 -18.844846 69.672242 -0.323598 -5.851308 -14.465623 -0.113249 2.168646 -5.972065 0.851897 -0.425306 0.962794 -0.871758 -0.531367 2.439651 -1.374588 -0.230110 1.944118 2.643351 0.834299 -7.605780 0.986783 0.744675 9.006831 -0.092712 0.525642 4.346257 0.000000 0.000000 0.000000 3.171944 1.219917 -24.439115 15.562800 -24.924091 3.459734 17.711233 -14.583164 -12.374133 0.000000 0.000000 0.000000 -7.125000 0.000000 0.000000 -8.629086 42.785537 -0.475312 0.000000 0.000000 0.000000 -0.209151 2.665247 25.080596 -15.551536 -24.908763 -3.454937 -18.280066 4.027420 8.075916 0.000000 0.000000 0.000000 7.125000 0.000000 0.000000 7.374988 38.381766 1.209877
